<?xml version="1.0" encoding="UTF-8" standalone="no"?>
<svg
   height="24px"
   viewBox="0 0 24 24"
   width="24px"
   fill="#000000"
   version="1.1"
   id="svg2"
   sodipodi:docname="search.svg"
   inkscape:version="1.3 (0e150ed6c4, 2023-07-21)"
   xmlns:inkscape="http://www.inkscape.org/namespaces/inkscape"
   xmlns:sodipodi="http://sodipodi.sourceforge.net/DTD/sodipodi-0.dtd"
   xmlns="http://www.w3.org/2000/svg"
   xmlns:svg="http://www.w3.org/2000/svg">
  <defs
     id="defs2" />
  <sodipodi:namedview
     id="namedview2"
     pagecolor="#ffffff"
     bordercolor="#000000"
     borderopacity="0.25"
     inkscape:showpageshadow="2"
     inkscape:pageopacity="0.0"
     inkscape:pagecheckerboard="0"
     inkscape:deskcolor="#d1d1d1"
     inkscape:zoom="26.375"
     inkscape:cx="11.981043"
     inkscape:cy="12"
     inkscape:window-width="1600"
     inkscape:window-height="829"
     inkscape:window-x="-8"
     inkscape:window-y="-8"
     inkscape:window-maximized="1"
     inkscape:current-layer="svg2" />
  <path
     d="M0 0h24v24H0V0z"
     fill="none"
     id="path1" />
  <path
     d="m 18.473556,13.560046 h -0.63587 l -0.225372,-0.217323 c 0.788801,-0.917584 1.263691,-2.108834 1.263691,-3.404721 0,-2.8895857 -2.342255,-5.2318408 -5.231841,-5.2318408 -2.889587,0 -5.2318419,2.3422551 -5.2318419,5.2318408 0,2.889587 2.3422549,5.231841 5.2318419,5.231841 1.295887,0 2.487137,-0.474889 3.404721,-1.26369 l 0.217323,0.225371 v 0.63587 L 21.290701,18.783838 22.49,17.58454 Z m -4.829392,0 c -2.004198,0 -3.622045,-1.617846 -3.622045,-3.622044 0,-2.0041972 1.617847,-3.6220435 3.622045,-3.6220435 2.004198,0 3.622044,1.6178463 3.622044,3.6220435 0,2.004198 -1.617846,3.622044 -3.622044,3.622044 z"
     id="path2"
     style="fill:#8a8a88;fill-opacity:1;stroke-width:0.804899" />
</svg>
